<svg width="25" height="25" viewBox="0 0 25 25" fill="none" xmlns="http://www.w3.org/2000/svg">
<path d="M21.8667 3.125H3.125C2.57178 3.125 2.04121 3.34477 1.65002 3.73596C1.25883 4.12715 1.03906 4.65771 1.03906 5.21094V8.33203H3.125V5.21094H21.8667V19.7891H14.582V21.875H21.875C22.4282 21.875 22.9588 21.6552 23.35 21.264C23.7412 20.8729 23.9609 20.3423 23.9609 19.7891V5.21094C23.9609 4.65771 23.7412 4.12715 23.35 3.73596C22.9588 3.34477 22.4282 3.125 21.875 3.125H21.8667ZM1.03906 18.7295V21.8506H4.15967C4.15973 21.4407 4.07906 21.0349 3.92227 20.6562C3.76547 20.2776 3.53562 19.9335 3.24584 19.6437C2.95606 19.3538 2.61202 19.1239 2.23338 18.9671C1.85474 18.8102 1.44891 18.7295 1.03906 18.7295ZM1.03906 14.5654V16.6504C1.72296 16.6503 2.40017 16.785 3.03201 17.0467C3.66385 17.3084 4.23794 17.6921 4.72148 18.1757C5.20502 18.6593 5.58855 19.2335 5.85014 19.8654C6.11174 20.4973 6.24629 21.1745 6.24609 21.8584V21.875H8.33203C8.33423 19.9432 7.56899 18.0895 6.20462 16.7219C4.84025 15.3542 2.98849 14.5845 1.05664 14.582H1.04053L1.03906 14.5654ZM1.03906 10.4019V12.4878C6.21484 12.4829 10.4141 16.6748 10.418 21.8506V21.875H12.5039C12.4814 15.5537 7.36035 10.436 1.03906 10.418V10.4019Z" fill="#E9560D"/>
</svg>
