<svg width="25" height="25" viewBox="0 0 25 25" fill="none" xmlns="http://www.w3.org/2000/svg">
<g clip-path="url(#clip0_9_265)">
<path d="M11.7648 7.65191L14.1202 8.27257C14.2002 8.29128 14.2718 8.33588 14.3238 8.39946C14.3759 8.46303 14.4055 8.54202 14.408 8.62413C14.408 8.82378 14.2305 8.98872 14.0122 8.98872H12.467C12.3005 8.98823 12.1356 8.95582 11.9813 8.89323C11.7539 8.79774 11.4918 8.81944 11.3173 8.98003L10.4926 9.73958C10.4545 9.77297 10.4216 9.81188 10.395 9.85503C10.3609 9.91088 10.3383 9.97291 10.3283 10.0376C10.3183 10.1022 10.3213 10.1682 10.3369 10.2317C10.3526 10.2952 10.3806 10.355 10.4195 10.4076C10.4584 10.4602 10.5073 10.5046 10.5634 10.5382C11.0201 10.8123 11.5314 10.9827 12.0612 11.0373V11.8056C12.0612 12.1875 12.401 12.5 12.8151 12.5H13.569C13.9835 12.5 14.3234 12.1875 14.3234 11.8056V11.0417C15.7526 10.8854 16.8338 9.69618 16.6454 8.30729C16.5087 7.30903 15.6706 6.51476 14.6246 6.23698L12.2691 5.61632C12.1891 5.59761 12.1175 5.55301 12.0655 5.48943C12.0134 5.42586 11.9839 5.34687 11.9813 5.26476C11.9813 5.0651 12.1589 4.90017 12.3772 4.90017H13.9223C14.0894 4.90043 14.2549 4.93285 14.4097 4.99566C14.6367 5.09115 14.8993 5.06944 15.0738 4.90885L15.8984 4.14931C15.9353 4.11663 15.9671 4.07859 15.9926 4.03646C16.027 3.98063 16.0499 3.91855 16.0601 3.85381C16.0703 3.78907 16.0676 3.72295 16.0521 3.65926C16.0366 3.59558 16.0086 3.5356 15.9698 3.48278C15.931 3.42997 15.8821 3.38537 15.826 3.35156C15.3691 3.07749 14.8576 2.9071 14.3277 2.85243V2.08333C14.3277 1.70139 13.9883 1.38889 13.5738 1.38889H12.8199C12.4054 1.38889 12.066 1.70139 12.066 2.08333V2.84722C10.6385 3.00347 9.55512 4.19271 9.74349 5.5816C9.87977 6.57986 10.7205 7.37413 11.7648 7.65191ZM24.5343 15.6293C24.0221 15.1649 23.2235 15.1953 22.6853 15.6293L18.6749 18.8368C18.1826 19.2317 17.5699 19.4462 16.9388 19.4444H11.8056C11.6214 19.4444 11.4447 19.3713 11.3145 19.241C11.1843 19.1108 11.1111 18.9342 11.1111 18.75C11.1111 18.5658 11.1843 18.3892 11.3145 18.259C11.4447 18.1287 11.6214 18.0556 11.8056 18.0556H15.2036C15.8937 18.0556 16.5365 17.5825 16.6467 16.901C16.6603 16.8228 16.667 16.7435 16.6667 16.6641C16.666 16.2962 16.5193 15.9436 16.259 15.6837C15.9986 15.4237 15.6457 15.2778 15.2778 15.2778H8.33333C7.16216 15.2781 6.02668 15.6809 5.11719 16.4188L3.09896 18.0556H0.694444C0.510266 18.0556 0.333632 18.1287 0.203398 18.259C0.0731645 18.3892 0 18.5658 0 18.75L0 22.9167C0 23.1008 0.0731645 23.2775 0.203398 23.4077C0.333632 23.5379 0.510266 23.6111 0.694444 23.6111H16.1793C16.8102 23.6116 17.4225 23.3973 17.9154 23.0035L24.4792 17.7517C24.6371 17.6254 24.7655 17.4662 24.8554 17.2851C24.9454 17.1041 24.9948 16.9056 25.0001 16.7034C25.0054 16.5013 24.9665 16.3005 24.8861 16.115C24.8057 15.9295 24.6858 15.7637 24.5347 15.6293H24.5343Z" fill="#E9560D"/>
</g>
<defs>
<clipPath id="clip0_9_265">
<rect width="25" height="25" fill="white"/>
</clipPath>
</defs>
</svg>
