<svg width="23" height="23" viewBox="0 0 23 23" fill="none" xmlns="http://www.w3.org/2000/svg">
<path d="M21.6562 19.3125H1.34375C1.13655 19.3125 0.937836 19.3948 0.791323 19.5413C0.64481 19.6878 0.5625 19.8865 0.5625 20.0938L0.5625 21.6562C0.5625 21.8635 0.64481 22.0622 0.791323 22.2087C0.937836 22.3552 1.13655 22.4375 1.34375 22.4375H21.6562C21.8635 22.4375 22.0622 22.3552 22.2087 22.2087C22.3552 22.0622 22.4375 21.8635 22.4375 21.6562V20.0938C22.4375 19.8865 22.3552 19.6878 22.2087 19.5413C22.0622 19.3948 21.8635 19.3125 21.6562 19.3125ZM21.6562 13.0625H1.34375C1.13655 13.0625 0.937836 13.1448 0.791323 13.2913C0.64481 13.4378 0.5625 13.6365 0.5625 13.8438L0.5625 15.4062C0.5625 15.6135 0.64481 15.8122 0.791323 15.9587C0.937836 16.1052 1.13655 16.1875 1.34375 16.1875H21.6562C21.8635 16.1875 22.0622 16.1052 22.2087 15.9587C22.3552 15.8122 22.4375 15.6135 22.4375 15.4062V13.8438C22.4375 13.6365 22.3552 13.4378 22.2087 13.2913C22.0622 13.1448 21.8635 13.0625 21.6562 13.0625ZM21.6562 6.8125H1.34375C1.13655 6.8125 0.937836 6.89481 0.791323 7.04132C0.64481 7.18784 0.5625 7.38655 0.5625 7.59375L0.5625 9.15625C0.5625 9.36345 0.64481 9.56216 0.791323 9.70868C0.937836 9.85519 1.13655 9.9375 1.34375 9.9375H21.6562C21.8635 9.9375 22.0622 9.85519 22.2087 9.70868C22.3552 9.56216 22.4375 9.36345 22.4375 9.15625V7.59375C22.4375 7.38655 22.3552 7.18784 22.2087 7.04132C22.0622 6.89481 21.8635 6.8125 21.6562 6.8125ZM21.6562 0.5625H1.34375C1.13655 0.5625 0.937836 0.64481 0.791323 0.791323C0.64481 0.937836 0.5625 1.13655 0.5625 1.34375L0.5625 2.90625C0.5625 3.11345 0.64481 3.31216 0.791323 3.45868C0.937836 3.60519 1.13655 3.6875 1.34375 3.6875H21.6562C21.8635 3.6875 22.0622 3.60519 22.2087 3.45868C22.3552 3.31216 22.4375 3.11345 22.4375 2.90625V1.34375C22.4375 1.13655 22.3552 0.937836 22.2087 0.791323C22.0622 0.64481 21.8635 0.5625 21.6562 0.5625Z" fill="white"/>
</svg>
