<svg width="25" height="25" viewBox="0 0 25 25" fill="none" xmlns="http://www.w3.org/2000/svg">
<g clip-path="url(#clip0_9_269)">
<path d="M24.2641 4.62734C22.7488 3.9918 21.2324 3.75 19.7168 3.75C14.9055 3.74961 10.0945 6.18516 5.2832 6.18516C4.07656 6.18516 2.8707 6.03203 1.66406 5.64922C1.52852 5.60625 1.39258 5.58594 1.25977 5.58594C0.5875 5.58594 0 6.10625 0 6.82852V19.2215C0 19.7148 0.282422 20.1824 0.735937 20.3723C2.25117 21.0082 3.76758 21.25 5.2832 21.25C10.0945 21.25 14.9059 18.8145 19.7172 18.8145C20.9238 18.8145 22.1297 18.9676 23.3363 19.3504C23.4719 19.3934 23.6078 19.4137 23.7406 19.4137C24.4129 19.4137 25.0004 18.8934 25.0004 18.1711V5.77852C25 5.28477 24.7176 4.81758 24.2641 4.62734ZM1.875 7.66484C2.66094 7.86172 3.48125 7.96055 4.325 8.01367C4.09531 9.16172 3.08594 10.027 1.875 10.027V7.66484ZM1.875 18.7977V16.9312C3.21758 16.9312 4.30391 17.9965 4.36367 19.3297C3.48359 19.259 2.66094 19.0832 1.875 18.7977ZM12.5 16.25C10.7738 16.25 9.375 14.5707 9.375 12.5C9.375 10.4289 10.7742 8.75 12.5 8.75C14.2258 8.75 15.625 10.4289 15.625 12.5C15.625 14.5715 14.2254 16.25 12.5 16.25ZM23.125 17.3352C22.4406 17.1637 21.7301 17.0676 21.0031 17.0055C21.2324 15.9867 22.0773 15.2133 23.125 15.0805V17.3352ZM23.125 8.11211C21.9184 7.95937 20.982 6.95195 20.9449 5.70781C21.7082 5.79258 22.4328 5.95117 23.125 6.20234V8.11211Z" fill="#E9560D"/>
</g>
<defs>
<clipPath id="clip0_9_269">
<rect width="25" height="25" fill="white"/>
</clipPath>
</defs>
</svg>
