<svg width="25" height="25" viewBox="0 0 25 25" fill="none" xmlns="http://www.w3.org/2000/svg">
<path d="M1.5625 10.9375H10.9375V1.5625H1.5625V10.9375ZM4.6875 4.6875H7.8125V7.8125H4.6875V4.6875ZM14.0625 1.5625V10.9375H23.4375V1.5625H14.0625ZM20.3125 7.8125H17.1875V4.6875H20.3125V7.8125ZM1.5625 23.4375H10.9375V14.0625H1.5625V23.4375ZM4.6875 17.1875H7.8125V20.3125H4.6875V17.1875ZM21.875 14.0625H23.4375V20.3125H18.75V18.75H17.1875V23.4375H14.0625V14.0625H18.75V15.625H21.875V14.0625ZM21.875 21.875H23.4375V23.4375H21.875V21.875ZM18.75 21.875H20.3125V23.4375H18.75V21.875Z" fill="#E9560D"/>
</svg>
