<svg width="25" height="25" viewBox="0 0 25 25" fill="none" xmlns="http://www.w3.org/2000/svg">
<g clip-path="url(#clip0_9_267)">
<path d="M23.6328 0H19.7754C19.2529 0 18.9941 0.629883 19.3604 1.00098L20.1855 1.82617L16.2451 5.7666C15.1611 5.08301 13.877 4.6875 12.5 4.6875C11.123 4.6875 9.83887 5.08301 8.75488 5.7666L7.94922 4.96094L8.91602 3.99414C9.14551 3.76465 9.14551 3.39355 8.91602 3.16406L7.53418 1.78223C7.30469 1.55273 6.93359 1.55273 6.7041 1.78223L5.7373 2.74902L4.80957 1.82129L5.63477 0.996094C6.01074 0.629883 5.74707 0 5.22461 0H1.36719C1.04492 0 0.78125 0.263672 0.78125 0.585938V4.44336C0.78125 4.96582 1.41113 5.22461 1.78223 4.8584L2.60742 4.0332L3.53516 4.96094L2.56836 5.92773C2.33887 6.15723 2.33887 6.52832 2.56836 6.75781L3.9502 8.13965C4.17969 8.36914 4.55078 8.36914 4.78027 8.13965L5.74707 7.17285L6.55273 7.97852C5.86426 9.05762 5.46875 10.3418 5.46875 11.7188C5.46875 15.0635 7.80762 17.8662 10.9375 18.5742V19.9219H9.17969C8.85742 19.9219 8.59375 20.1855 8.59375 20.5078V22.4609C8.59375 22.7832 8.85742 23.0469 9.17969 23.0469H10.9375V24.4141C10.9375 24.7363 11.2012 25 11.5234 25H13.4766C13.7988 25 14.0625 24.7363 14.0625 24.4141V23.0469H15.8203C16.1426 23.0469 16.4062 22.7832 16.4062 22.4609V20.5078C16.4062 20.1855 16.1426 19.9219 15.8203 19.9219H14.0625V18.5742C17.1924 17.8613 19.5312 15.0635 19.5312 11.7188C19.5312 10.3418 19.1357 9.05762 18.4521 7.97363L22.3926 4.0332L23.2178 4.8584C23.5889 5.22949 24.2188 4.96582 24.2188 4.44336V0.585938C24.2188 0.263672 23.9551 0 23.6328 0ZM12.5 15.625C10.3467 15.625 8.59375 13.8721 8.59375 11.7188C8.59375 9.56543 10.3467 7.8125 12.5 7.8125C14.6533 7.8125 16.4062 9.56543 16.4062 11.7188C16.4062 13.8721 14.6533 15.625 12.5 15.625Z" fill="#E9560D"/>
</g>
<defs>
<clipPath id="clip0_9_267">
<rect width="25" height="25" fill="white"/>
</clipPath>
</defs>
</svg>
