<svg width="15" height="15" viewBox="0 0 15 15" fill="none" xmlns="http://www.w3.org/2000/svg">
<g clip-path="url(#clip0_9_211)">
<path d="M7.5 0.234375C3.48633 0.234375 0.234375 3.48633 0.234375 7.5C0.234375 11.5137 3.48633 14.7656 7.5 14.7656C11.5137 14.7656 14.7656 11.5137 14.7656 7.5C14.7656 3.48633 11.5137 0.234375 7.5 0.234375ZM7.5 3.04688C8.92383 3.04688 10.0781 4.20117 10.0781 5.625C10.0781 7.04883 8.92383 8.20312 7.5 8.20312C6.07617 8.20312 4.92188 7.04883 4.92188 5.625C4.92188 4.20117 6.07617 3.04688 7.5 3.04688ZM7.5 13.125C5.78027 13.125 4.23926 12.3457 3.20801 11.127C3.75879 10.0898 4.83691 9.375 6.09375 9.375C6.16406 9.375 6.23438 9.38672 6.30176 9.40723C6.68262 9.53027 7.08105 9.60938 7.5 9.60938C7.91895 9.60938 8.32031 9.53027 8.69824 9.40723C8.76562 9.38672 8.83594 9.375 8.90625 9.375C10.1631 9.375 11.2412 10.0898 11.792 11.127C10.7607 12.3457 9.21973 13.125 7.5 13.125Z" fill="white"/>
</g>
<defs>
<clipPath id="clip0_9_211">
<rect width="15" height="15" fill="white"/>
</clipPath>
</defs>
</svg>
